{"title":"Shadows in Paradise 2010 720p BRRip x264 Feel-Free","uid":6106025,"size":1741220740,"categoryP":"video","categoryS":"hd___movies","magnet":"?xt=urn:btih:a41540c07a651ccb00109bb8b3953694aaf37c3d&amp;dn=Shadows+in+Paradise+2010+720p+BRRip+x264+Feel-Free&amp;tr=udp%3A%2F%2Ftracker.openbittorrent.com%3A80&amp;tr=udp%3A%2F%2Fopen.demonii.com%3A1337&amp;tr=udp%3A%2F%2Ftracker.coppersurfer.tk%3A6969&amp;tr=udp%3A%2F%2Fexodus.desync.com%3A6969","seeders":0,"leechers":1,"uploader":"neon","files":-1,"time":1295171453,"description":"Genre: Action\nLanguage:English\n &lt;a href=&quot; http://www.imdb.com/title/tt1212442/&quot; rel=&quot;nofollow&quot; target=&quot;_NEW&quot;&gt; http://www.imdb.com/title/tt1212442/&lt;/a&gt;\nSource:1080p.BluRay.x264-SWAGGERHD\n\n\nFormat : Matroska\nFile size : 1.62 GiB\nDuration : 1h 25mn\nOverall bit rate : 2 716 Kbps\n\n\nVideo\nFormat settings, CABAC : Yes\nFormat settings, ReFrames : 4 frames\nFormat settings, GOP : M=1, N=4\nCodec ID : V_MPEG4/ISO/AVC\nDuration : 1h 25mn\nBit rate : 2 278 Kbps\nNominal bit rate : 2 400 Kbps\nWidth : 1 280 pixels\nHeight : 720 pixels\nDisplay aspect ratio : 16:9\nFrame rate mode : Variable\nFrame rate : 23.976 fps\nColor space : YUV\nChroma subsampling : 4:2:0\nBit depth : 8 bits\nScan type : Progressive\nBits/(Pixel*Frame) : 0.103\nStream size : 1.35 GiB (84%)\nWriting library : x264\n\n\nAudio\nID : 2\nFormat : AC-3\nFormat/Info : Audio Coding 3\nMode extension : CM (complete main)\nCodec ID : A_AC3\nDuration : 1h 25mn\nBit rate mode : Constant\nBit rate : 384 Kbps\nChannel(s) : 6 channels\nChannel positions : Front: L C R, Side: L R, LFE\nSampling rate : 48.0 KHz\nBit depth : 16 bits\nVideo delay : -1mn 5s\nStream size : 234 MiB (14%)\nLanguage : English\n\n\n\nPlot:\nDuring a rescue operation in Iraq, Special Forces member Max Forrester is devastated when Sasha, his squad mate and fiance goes missing\n &lt;a href=&quot;\nhttp://shareimage.org/images/f6vmeliruim7dixncl.png&quot; rel=&quot;nofollow&quot; target=&quot;_NEW&quot;&gt;\nhttp://shareimage.org/images/f6vmeliruim7dixncl.png&lt;/a&gt; &lt;a href=&quot;\nhttp://shareimage.org/images/nofxr1cyctxvdp9efz2.png&quot; rel=&quot;nofollow&quot; target=&quot;_NEW&quot;&gt;\nhttp://shareimage.org/images/nofxr1cyctxvdp9efz2.png&lt;/a&gt; &lt;a href=&quot;\nhttp://shareimage.org/images/2t5p9e2vnaueam59wvy2.png&quot; rel=&quot;nofollow&quot; target=&quot;_NEW&quot;&gt;\nhttp://shareimage.org/images/2t5p9e2vnaueam59wvy2.png&lt;/a&gt;","torrent":{"xt":"urn:btih:a41540c07a651ccb00109bb8b3953694aaf37c3d","amp;dn":"Shadows+in+Paradise+2010+720p+BRRip+x264+Feel-Free","amp;tr":["udp%3A%2F%2Ftracker.openbittorrent.com%3A80","udp%3A%2F%2Fopen.demonii.com%3A1337","udp%3A%2F%2Ftracker.coppersurfer.tk%3A6969","udp%3A%2F%2Fexodus.desync.com%3A6969"],"infoHash":"a41540c07a651ccb00109bb8b3953694aaf37c3d","infoHashBuffer":{"type":"Buffer","data":[164,21,64,192,122,101,28,203,0,16,155,184,179,149,54,148,170,243,124,61]},"announce":[],"urlList":[]}}